HIERARCHY
ROOT Back
{
	OFFSET -0.025939 -0.155061 -0.071617
	CHANNELS 6 Xposition Yposition Zposition Xrotation Yrotation Zrotation
	JOINT Back.001
	{
		OFFSET -0.003505 -0.018421 0.201518
		CHANNELS 3 Xrotation Yrotation Zrotation
		JOINT Back.002
		{
			OFFSET 0.016491 0.536583 -0.200823
			CHANNELS 3 Xrotation Yrotation Zrotation
			JOINT Back.003
			{
				OFFSET 0.020126 0.465364 -0.296453
				CHANNELS 3 Xrotation Yrotation Zrotation
				JOINT Back.004
				{
					OFFSET 0.004015 0.300216 -0.331518
					CHANNELS 3 Xrotation Yrotation Zrotation
					JOINT Back.005
					{
						OFFSET -0.006362 0.179212 -0.395271
						CHANNELS 3 Xrotation Yrotation Zrotation
						End Site
						{
							OFFSET 0.003210 0.169580 -0.248638
						}
					}
				}
			}
		}
	}
	JOINT Back.006
	{
		OFFSET -0.003505 -0.018421 0.201518
		CHANNELS 3 Xrotation Yrotation Zrotation
		JOINT Back.007
		{
			OFFSET 0.009074 0.042267 0.435368
			CHANNELS 3 Xrotation Yrotation Zrotation
			JOINT Back.028
			{
				OFFSET 0.294185 0.423027 0.110648
				CHANNELS 3 Xrotation Yrotation Zrotation
				End Site
				{
					OFFSET 0.115497 0.017891 -0.022316
				}
			}
		}
		JOINT Back.008
		{
			OFFSET 0.009074 0.042267 0.435368
			CHANNELS 3 Xrotation Yrotation Zrotation
			JOINT Back.027
			{
				OFFSET -0.333769 0.382426 0.104153
				CHANNELS 3 Xrotation Yrotation Zrotation
				End Site
				{
					OFFSET -0.097234 0.019566 0.006207
				}
			}
		}
	}
	JOINT Back.009
	{
		OFFSET -0.003505 -0.018421 0.201518
		CHANNELS 3 Xrotation Yrotation Zrotation
		JOINT Back.010
		{
			OFFSET -0.316290 0.134797 -0.124246
			CHANNELS 3 Xrotation Yrotation Zrotation
			JOINT Back.011
			{
				OFFSET -0.395916 0.142143 -0.207065
				CHANNELS 3 Xrotation Yrotation Zrotation
				JOINT Back.012
				{
					OFFSET -0.344801 0.082840 -0.255499
					CHANNELS 3 Xrotation Yrotation Zrotation
					JOINT Back.013
					{
						OFFSET -0.228690 0.089525 -0.443425
						CHANNELS 3 Xrotation Yrotation Zrotation
						End Site
						{
							OFFSET -0.227593 0.080999 -0.424830
						}
					}
				}
			}
		}
	}
	JOINT Back.014
	{
		OFFSET -0.003505 -0.018421 0.201518
		CHANNELS 3 Xrotation Yrotation Zrotation
		JOINT Back.015
		{
			OFFSET 0.502133 0.149618 -0.155434
			CHANNELS 3 Xrotation Yrotation Zrotation
			JOINT Back.016
			{
				OFFSET 0.271521 0.093222 -0.166824
				CHANNELS 3 Xrotation Yrotation Zrotation
				JOINT Back.017
				{
					OFFSET 0.365888 0.123780 -0.355076
					CHANNELS 3 Xrotation Yrotation Zrotation
					JOINT Back.018
					{
						OFFSET 0.223503 0.090656 -0.351299
						CHANNELS 3 Xrotation Yrotation Zrotation
						End Site
						{
							OFFSET 0.160469 0.074740 -0.373434
						}
					}
				}
			}
		}
	}
	JOINT Back.019
	{
		OFFSET -0.003505 -0.018421 0.201518
		CHANNELS 3 Xrotation Yrotation Zrotation
		JOINT Back.020
		{
			OFFSET 0.354868 -0.419142 -0.233901
			CHANNELS 3 Xrotation Yrotation Zrotation
			JOINT Back.021
			{
				OFFSET 0.275576 -0.396336 -0.262625
				CHANNELS 3 Xrotation Yrotation Zrotation
				JOINT Back.022
				{
					OFFSET 0.220237 -0.295631 -0.515860
					CHANNELS 3 Xrotation Yrotation Zrotation
					End Site
					{
						OFFSET 0.126496 -0.184888 -0.412616
					}
				}
			}
		}
	}
	JOINT Back.023
	{
		OFFSET -0.003505 -0.018421 0.201518
		CHANNELS 3 Xrotation Yrotation Zrotation
		JOINT Back.024
		{
			OFFSET -0.263893 -0.393110 -0.214411
			CHANNELS 3 Xrotation Yrotation Zrotation
			JOINT Back.025
			{
				OFFSET -0.288950 -0.412418 -0.267947
				CHANNELS 3 Xrotation Yrotation Zrotation
				JOINT Back.026
				{
					OFFSET -0.225239 -0.260112 -0.489681
					CHANNELS 3 Xrotation Yrotation Zrotation
					End Site
					{
						OFFSET -0.138597 -0.194926 -0.452380
					}
				}
			}
		}
	}
}
MOTION
Frames: 5
Frame Time: 0.5
-0.048265 -0.171932 0.364021 7.101783 -0.000000 0.000000 -0.000003 0.000000 -0.000000 24.380256 4.719772 7.003323 -54.879416 -5.348229 -24.240568 -74.220975 -3.607461 -43.942070 -93.920722 5.480715 -53.827454 -0.000001 0.000000 -0.000000 -0.000002 0.000000 0.000002 -0.000001 0.000003 0.000001 -0.000000 0.000000 -0.000006 0.000001 0.000000 -0.000003 -0.000001 0.000001 -0.000001 -8.517207 33.222771 16.817985 3.852761 -16.204286 -6.942224 -6.048058 -30.066305 -10.484608 0.000001 -0.000002 -0.000002 -0.000000 0.000002 0.000000 -5.882752 -30.823059 -10.192397 0.744306 30.837946 8.226240 -0.000002 -0.000002 -0.000001 -0.000000 0.000001 0.000002 7.168816 0.920124 1.822090 6.540926 0.836391 0.173500 0.000003 0.000000 0.000001 -0.000002 -0.000000 -0.000001 4.590903 -1.757154 2.025262 8.368124 1.008991 -0.124438 0.000002 -0.000002 -0.000004 -0.000001 0.000000 0.000003 
-0.047596 -0.171426 0.350962 6.889019 -0.000000 -0.000000 -0.000003 0.000000 0.000000 23.662005 4.538436 6.826344 -53.287309 -5.532176 -23.519531 -72.236736 -4.290398 -42.831775 -91.681124 4.244858 -52.831220 -0.000001 0.000000 -0.000000 -0.000001 0.000001 -0.000000 0.000003 0.000001 -0.000001 0.000002 0.000000 -0.000002 0.000001 0.000001 -0.000002 -0.000001 -0.000002 -0.000000 -8.064833 32.285693 16.164498 3.763628 -15.714307 -6.744594 -5.757104 -29.194093 -10.084486 -0.000000 -0.000002 -0.000003 -0.000000 0.000000 0.000000 -5.595805 -29.927854 -9.799794 0.792964 29.924008 7.957835 0.000001 -0.000001 -0.000000 -0.000001 0.000003 -0.000000 6.954479 0.889281 1.769243 6.344969 0.811069 0.169698 -0.000002 0.000000 -0.000004 0.000001 0.000001 0.000004 4.452383 -1.706889 1.962533 8.117421 0.979082 -0.118576 0.000002 0.000002 -0.000000 -0.000004 0.000000 0.000003 
-0.046482 -0.170585 0.329234 6.534947 0.000000 -0.000000 -0.000003 0.000000 0.000000 22.463763 4.241096 6.526377 -50.606921 -5.796012 -22.297158 -68.838314 -5.359007 -40.894405 -87.794705 2.218170 -51.014232 0.000001 0.000000 -0.000000 -0.000002 0.000000 0.000002 0.000001 0.000003 0.000003 0.000000 -0.000001 -0.000006 0.000000 0.000000 0.000001 -0.000001 -0.000001 0.000001 -7.347094 30.711215 15.106741 3.611755 -14.898924 -6.414718 -5.292254 -27.734909 -9.435281 0.000002 0.000001 -0.000000 0.000001 0.000000 0.000000 -5.138034 -28.430299 -9.163546 0.862366 28.398569 7.517182 -0.000001 -0.000000 0.000000 0.000003 0.000008 0.000001 6.597716 0.838396 1.681025 6.018872 0.768959 0.163176 -0.000005 -0.000001 0.000002 0.000003 0.000002 0.000001 4.222018 -1.622905 1.858421 7.700184 0.929249 -0.109110 0.000004 -0.000002 -0.000003 0.000003 0.000000 0.000003 
-0.044947 -0.169425 0.299287 6.046872 -0.000000 0.000000 -0.000002 0.000000 0.000000 20.806390 3.840707 6.101988 -46.855388 -6.068446 -20.572105 -63.964319 -6.669190 -38.047459 -82.101353 -0.467740 -48.171900 0.000001 0.000000 -0.000001 -0.000002 0.000001 -0.000000 0.000002 0.000000 0.000000 0.000001 -0.000000 -0.000004 -0.000000 0.000001 0.000001 -0.000001 -0.000001 -0.000001 -6.426118 28.512604 13.705843 3.395163 -13.775207 -5.957837 -4.689227 -25.709018 -8.572473 -0.000001 -0.000004 -0.000003 0.000001 0.000000 -0.000001 -4.545425 -26.351341 -8.319358 0.935254 26.287595 6.920865 0.000002 -0.000000 0.000000 0.000003 0.000004 0.000000 6.105807 0.769149 1.558915 5.569367 0.710974 0.153784 0.000004 0.000000 0.000001 -0.000000 0.000000 0.000002 3.904759 -1.506466 1.715480 7.125036 0.860445 -0.096653 0.000001 -0.000004 0.000001 0.000001 -0.000003 0.000004 
-0.043040 -0.167984 0.262068 5.440146 0.000000 0.000000 -0.000002 0.000000 0.000000 18.737816 3.359150 5.557407 -42.116056 -6.250759 -18.377590 -57.627276 -7.982955 -34.249929 -74.476294 -3.516449 -44.083714 -0.000001 0.000000 -0.000000 -0.000001 0.000001 0.000002 0.000002 0.000001 0.000004 -0.000001 0.000000 -0.000003 0.000001 0.000002 0.000001 0.000001 -0.000002 -0.000000 -5.384646 25.739293 12.048857 3.114176 -12.379124 -5.386058 -3.996767 -23.170143 -7.547587 -0.000001 -0.000001 -0.000000 0.000000 0.000000 0.000000 -3.866757 -23.746324 -7.318592 0.990843 23.652445 6.194953 -0.000001 -0.000000 -0.000001 -0.000001 0.000001 0.000000 5.494110 0.684529 1.406302 5.010602 0.639008 0.141471 -0.000005 -0.000003 0.000002 -0.000001 0.000000 0.000001 3.510840 -1.360630 1.538714 6.410037 0.774738 -0.082136 0.000000 0.000000 0.000003 0.000001 0.000000 0.000003 
